# xmcd CD database file
#
# Track frame offsets:
#        150
#        20016
#        38964
#        60598
#        89006
#        105154
#        123363
#        145976
#        181853
#        201045
#        233248
#
# Disc length: 3253 seconds
#
# Revision: 0
# Processed by: cddbd v1.5.2PL0 Copyright (c) Steve Scherf et al.
# Submitted via: CUERipper 2.1.6
#
DISCID=910cb30b
DTITLE=Sweet Bourbon - Night Turned Into Day
DYEAR=2017
DGENRE=
TTITLE0=2nd Wallstreet
TTITLE1=Texas Woman
TTITLE2=Cool Down
TTITLE3=Blue Wonder
TTITLE4=Kicked Me Out
TTITLE5=I Don't Care
TTITLE6=This Year's Destination
TTITLE7=Got To Say Goodbye
TTITLE8=Blinded
TTITLE9=Swan
TTITLE10=Enfants Terribles
EXTD=
EXTT0=
EXTT1=
EXTT2=
EXTT3=
EXTT4=
EXTT5=
EXTT6=
EXTT7=
EXTT8=
EXTT9=
EXTT10=
PLAYORDER=
